#Comment line ignore any data following # character 
#Hierarchical Translation and Rotation (.htr) file 
[Header]	
#Header keywords are followed by a single value 
FileType HTR		#Single word string
DataType HTRS		#Translation followed by rotation and scale data
FileVersion 1		#integer
NumSegments 64		#integer
NumFrames 3		#integer
DataFrameRate 30		#integer, data frame rate in this file
EulerRotationOrder ZYX
CalibrationUnits mm
RotationUnits Degrees
GlobalAxisofGravity Y
BoneLengthAxis Y
ScaleFactor 1.00
[SegmentNames&Hierarchy]
#CHILD	PARENT
Pinger_Root GLOBAL
Pelvis Pinger_Root
L_Hip Pelvis
R_Hip Pelvis
Rear_Leg01 Pelvis
Spine1 Pelvis
L_Leg01 L_Hip
L_Leg02 L_Leg01
L_Leg03 L_Leg02
L_Foot L_Leg03
L_Toe1_01 L_Foot
L_Toe2_01 L_Foot
L_Toe3_01 L_Foot
planeAlignerLeft L_Foot
L_Toe1_02 L_Toe1_01
L_Toe1_03 L_Toe1_02
L_Toe2_02 L_Toe2_01
L_Toe2_03 L_Toe2_02
L_Toe3_02 L_Toe3_01
L_Toe3_03 L_Toe3_02
planeLockWeightLeft planeAlignerLeft
R_Leg01 R_Hip
R_Leg02 R_Leg01
R_Leg03 R_Leg02
R_Foot R_Leg03
planeAlignerRight R_Foot
R_Toe1_01 R_Foot
R_Toe2_01 R_Foot
R_Toe3_01 R_Foot
planeLockWeightRight planeAlignerRight
R_Toe1_02 R_Toe1_01
R_Toe1_03 R_Toe1_02
R_Toe2_02 R_Toe2_01
R_Toe2_03 R_Toe2_02
R_Toe3_02 R_Toe3_01
R_Toe3_03 R_Toe3_02
Rear_Leg02 Rear_Leg01
Rear_Leg03 Rear_Leg02
Rear_Leg04 Rear_Leg03
Rear_Foot Rear_Leg04
planeAlignerCenter Rear_Foot
Rear_Toe1_01 Rear_Foot
Rear_Toe2_01 Rear_Foot
Rear_Toe3_01 Rear_Foot
planeLockWeightCenter planeAlignerCenter
Rear_Toe1_02 Rear_Toe1_01
Rear_Toe1_03 Rear_Toe1_02
Rear_Toe2_02 Rear_Toe2_01
Rear_Toe2_03 Rear_Toe2_02
Rear_Toe3_02 Rear_Toe3_01
Rear_Toe3_03 Rear_Toe3_02
Back_Bone Spine1
Head Spine1
Motor_Bone Back_Bone
Ping_Mechanism Back_Bone
BN_LookIK Head
bottomMouth Head
L_Mouth01 Head
L_mouthFront Head
mouthGun Head
R_Mouth01 Head
R_mouthFront Head
TopMouth Head
weapon_bone Head
[BasePosition]
#SegmentName Tx, Ty, Tz, Rx, Ry, Rz, BoneLength
Pinger_Root 0.000000 0.000000 0.000000 -90.000000 0.000000 0.000000 10.000000 
Pelvis 0.000000 0.000000 0.000000 0.000000 0.000000 0.000000 10.000000 
L_Hip 0.000000 0.000000 0.000000 0.000000 0.000000 0.000000 10.000000 
R_Hip 0.000000 0.000000 0.000000 0.000000 0.000000 0.000000 10.000000 
Rear_Leg01 0.000000 0.000000 0.000000 0.000000 0.000000 0.000000 10.000000 
Spine1 0.000000 0.000000 0.000000 0.000000 0.000000 0.000000 10.000000 
L_Leg01 0.000000 0.000000 0.000000 0.000000 0.000000 0.000000 10.000000 
L_Leg02 0.000000 0.000000 0.000000 0.000000 0.000000 0.000000 10.000000 
L_Leg03 0.000000 0.000000 0.000000 0.000000 0.000000 0.000000 10.000000 
L_Foot 0.000000 0.000000 0.000000 0.000000 0.000000 0.000000 10.000000 
L_Toe1_01 0.000000 0.000000 0.000000 0.000000 0.000000 0.000000 10.000000 
L_Toe2_01 0.000000 0.000000 0.000000 0.000000 0.000000 0.000000 10.000000 
L_Toe3_01 0.000000 0.000000 0.000000 0.000000 0.000000 0.000000 10.000000 
planeAlignerLeft 0.000000 0.000000 0.000000 0.000000 0.000000 0.000000 10.000000 
L_Toe1_02 0.000000 0.000000 0.000000 0.000000 0.000000 0.000000 10.000000 
L_Toe1_03 0.000000 0.000000 0.000000 0.000000 0.000000 0.000000 10.000000 
L_Toe2_02 0.000000 0.000000 0.000000 0.000000 0.000000 0.000000 10.000000 
L_Toe2_03 0.000000 0.000000 0.000000 0.000000 0.000000 0.000000 10.000000 
L_Toe3_02 0.000000 0.000000 0.000000 0.000000 0.000000 0.000000 10.000000 
L_Toe3_03 0.000000 0.000000 0.000000 0.000000 0.000000 0.000000 10.000000 
planeLockWeightLeft 0.000000 0.000000 0.000000 0.000000 0.000000 0.000000 10.000000 
R_Leg01 0.000000 0.000000 0.000000 0.000000 0.000000 0.000000 10.000000 
R_Leg02 0.000000 0.000000 0.000000 0.000000 0.000000 0.000000 10.000000 
R_Leg03 0.000000 0.000000 0.000000 0.000000 0.000000 0.000000 10.000000 
R_Foot 0.000000 0.000000 0.000000 0.000000 0.000000 0.000000 10.000000 
planeAlignerRight 0.000000 0.000000 0.000000 0.000000 0.000000 0.000000 10.000000 
R_Toe1_01 0.000000 0.000000 0.000000 0.000000 0.000000 0.000000 10.000000 
R_Toe2_01 0.000000 0.000000 0.000000 0.000000 0.000000 0.000000 10.000000 
R_Toe3_01 0.000000 0.000000 0.000000 0.000000 0.000000 0.000000 10.000000 
planeLockWeightRight 0.000000 0.000000 0.000000 0.000000 0.000000 0.000000 10.000000 
R_Toe1_02 0.000000 0.000000 0.000000 0.000000 0.000000 0.000000 10.000000 
R_Toe1_03 0.000000 0.000000 0.000000 0.000000 0.000000 0.000000 10.000000 
R_Toe2_02 0.000000 0.000000 0.000000 0.000000 0.000000 0.000000 10.000000 
R_Toe2_03 0.000000 0.000000 0.000000 0.000000 0.000000 0.000000 10.000000 
R_Toe3_02 0.000000 0.000000 0.000000 0.000000 0.000000 0.000000 10.000000 
R_Toe3_03 0.000000 0.000000 0.000000 0.000000 0.000000 0.000000 10.000000 
Rear_Leg02 0.000000 0.000000 0.000000 0.000000 0.000000 0.000000 10.000000 
Rear_Leg03 0.000000 0.000000 0.000000 0.000000 0.000000 0.000000 10.000000 
Rear_Leg04 0.000000 0.000000 0.000000 0.000000 0.000000 0.000000 10.000000 
Rear_Foot 0.000000 0.000000 0.000000 0.000000 0.000000 0.000000 10.000000 
planeAlignerCenter 0.000000 0.000000 0.000000 0.000000 0.000000 0.000000 10.000000 
Rear_Toe1_01 0.000000 0.000000 0.000000 0.000000 0.000000 0.000000 10.000000 
Rear_Toe2_01 0.000000 0.000000 0.000000 0.000000 0.000000 0.000000 10.000000 
Rear_Toe3_01 0.000000 0.000000 0.000000 0.000000 0.000000 0.000000 10.000000 
planeLockWeightCenter 0.000000 0.000000 0.000000 0.000000 0.000000 0.000000 10.000000 
Rear_Toe1_02 0.000000 0.000000 0.000000 0.000000 0.000000 0.000000 10.000000 
Rear_Toe1_03 0.000000 0.000000 0.000000 0.000000 0.000000 0.000000 10.000000 
Rear_Toe2_02 0.000000 0.000000 0.000000 0.000000 0.000000 0.000000 10.000000 
Rear_Toe2_03 0.000000 0.000000 0.000000 0.000000 0.000000 0.000000 10.000000 
Rear_Toe3_02 0.000000 0.000000 0.000000 0.000000 0.000000 0.000000 10.000000 
Rear_Toe3_03 0.000000 0.000000 0.000000 0.000000 0.000000 0.000000 10.000000 
Back_Bone 0.000000 0.000000 0.000000 0.000000 0.000000 0.000000 10.000000 
Head 0.000000 0.000000 0.000000 0.000000 0.000000 0.000000 10.000000 
Motor_Bone 0.000000 0.000000 0.000000 0.000000 0.000000 0.000000 10.000000 
Ping_Mechanism 0.000000 0.000000 0.000000 0.000000 0.000000 0.000000 10.000000 
BN_LookIK 0.000000 0.000000 0.000000 0.000000 0.000000 0.000000 10.000000 
bottomMouth 0.000000 0.000000 0.000000 0.000000 0.000000 0.000000 10.000000 
L_Mouth01 0.000000 0.000000 0.000000 0.000000 0.000000 0.000000 10.000000 
L_mouthFront 0.000000 0.000000 0.000000 0.000000 0.000000 0.000000 10.000000 
mouthGun 0.000000 0.000000 0.000000 0.000000 0.000000 0.000000 10.000000 
R_Mouth01 0.000000 0.000000 0.000000 0.000000 0.000000 0.000000 10.000000 
R_mouthFront 0.000000 0.000000 0.000000 0.000000 0.000000 0.000000 10.000000 
TopMouth 0.000000 0.000000 0.000000 0.000000 0.000000 0.000000 10.000000 
weapon_bone 0.000000 0.000000 0.000000 0.000000 0.000000 0.000000 10.000000 
#Beginning of Data. Separated by tabs
#Fr	Tx	Ty	Tz	Rx	Ry	Rz	SF
[Pinger_Root]
50 0.000000 0.000000 0.000000 0.000053 0.000053 89.999939 0.000000
51 0.000000 0.000000 0.000000 0.000053 0.000053 89.999939 0.000000
52 0.000000 0.000000 0.000000 0.000053 0.000053 89.999939 0.000000
[Pelvis]
50 376.197174 679.424316 4415.125000 -103.742592 -85.966530 98.454208 4482.908691
51 345.787048 728.032043 4420.281738 -102.686630 -85.943245 96.799294 4493.160645
52 297.081818 775.701965 4424.363281 -102.124084 -85.950928 95.782913 4501.662109
[L_Hip]
50 5.766392 125.831482 872.656799 160.158691 -45.484905 122.312202 881.701050
51 5.766392 125.831482 872.656799 160.158691 -45.484905 122.312202 881.701050
52 5.766392 125.831482 872.656799 160.158691 -45.484905 122.312202 881.701050
[R_Hip]
50 5.765438 125.836372 -872.654907 38.087830 49.812672 125.703735 881.699829
51 5.765438 125.836372 -872.654907 38.087841 49.812687 125.703735 881.699829
52 5.765438 125.836372 -872.654907 38.087841 49.812687 125.703735 881.699829
[Rear_Leg01]
50 -192.298416 -925.602966 -0.001907 170.253143 -2.469154 -151.426575 945.367432
51 -192.298416 -925.602966 -0.001907 170.091248 -1.753469 -152.709976 945.367432
52 -192.298416 -925.602966 -0.001907 169.913406 -1.041586 -153.994995 945.367432
[Spine1]
50 290.604584 5.007505 0.000477 4.501011 0.585009 19.406967 290.647736
51 290.604584 5.007505 0.000477 5.265264 0.259263 19.334406 290.647736
52 290.604584 5.007505 0.000477 5.755198 0.049371 19.319307 290.647736
[L_Leg01]
50 761.932007 -0.002384 -0.069261 24.971058 -16.834063 -7.047902 761.932068
51 761.932007 -0.002384 -0.069261 24.907667 -16.034523 -7.846806 761.932068
52 761.932007 -0.002384 -0.069261 24.529655 -15.727556 -8.245061 761.932068
[L_Leg02]
50 1441.140503 -0.000954 -0.000715 1.148478 -0.149788 -120.114235 1441.140503
51 1441.140503 -0.000954 -0.000715 1.374336 -0.164943 -121.064217 1441.140503
52 1441.140503 -0.000954 -0.000715 1.631939 -0.181785 -122.698418 1441.140503
[L_Leg03]
50 1686.963989 -0.000715 -0.000954 -0.010678 0.005805 113.618607 1686.963989
51 1686.963989 -0.000715 -0.000954 -0.014039 0.006652 114.688316 1686.963989
52 1686.963989 -0.000715 -0.000954 -0.018540 0.007779 115.493568 1686.963989
[L_Foot]
50 3041.570068 -30.715107 11.297464 -16.504513 13.078706 48.686096 3041.746094
51 3041.570068 -30.715107 11.297464 -15.466769 13.112374 49.632565 3041.746094
52 3041.570068 -30.715107 11.297464 -12.811484 13.129041 50.865551 3041.746094
[L_Toe1_01]
50 -188.216690 -224.732346 -21.137953 78.857872 -1.969653 -171.562210 293.899567
51 -188.216690 -224.732346 -21.137953 79.679482 -2.238478 -171.582031 293.899567
52 -188.216690 -224.732346 -21.137953 81.804779 -2.929190 -171.627747 293.899567
[L_Toe2_01]
50 200.746536 -219.926590 148.838394 -81.434929 -10.503304 -57.206535 332.896027
51 200.746536 -219.926590 148.838394 -81.860344 -11.396560 -57.036739 332.896027
52 200.746536 -219.926590 148.838394 -82.980621 -13.691272 -56.558426 332.896027
[L_Toe3_01]
50 188.832520 -219.859131 -191.078659 -93.610672 31.596872 -62.668003 347.140900
51 188.832520 -219.859131 -191.078659 -94.013275 30.626787 -63.018913 347.140900
52 188.832520 -219.859131 -191.078659 -95.011467 28.110443 -63.881496 347.140900
[planeAlignerLeft]
50 32.802124 -598.939392 -56.041637 -11.014513 -88.700195 -89.709496 602.449219
51 32.603153 -599.701050 -47.346367 0.000000 -89.529778 -100.742905 602.449951
52 32.197266 -601.071777 -24.879093 169.090942 -88.324623 90.129227 602.447449
[L_Toe1_02]
50 413.761139 0.000477 0.000000 0.001384 -25.997143 0.001384 413.761139
51 413.761139 0.000477 0.000000 0.001384 -25.999399 0.001384 413.761139
52 413.761139 0.000477 0.000000 0.001384 -26.001654 0.001384 413.761139
[L_Toe1_03]
50 464.317322 0.000358 -0.000089 0.003867 54.663151 0.003867 464.317322
51 464.317322 0.000358 -0.000089 0.003863 54.627186 0.003863 464.317322
52 464.317322 0.000358 -0.000089 0.003859 54.591240 0.003859 464.317322
[L_Toe2_02]
50 342.235809 -0.000477 0.000238 0.001188 -72.144875 0.001188 342.235809
51 342.235809 -0.000477 0.000238 0.001188 -72.181587 0.001188 342.235809
52 342.235809 -0.000477 0.000238 0.001188 -72.218323 0.001188 342.235809
[L_Toe2_03]
50 420.210846 -0.000715 0.000000 0.025390 84.701134 0.025390 420.210846
51 420.210846 -0.000715 0.000000 0.025535 84.731285 0.025535 420.210846
52 420.210846 -0.000715 0.000000 0.026809 84.981979 0.026809 420.210846
[L_Toe3_02]
50 329.270111 0.000954 0.000000 0.001177 -80.852325 0.001177 329.270111
51 329.270111 0.000954 0.000000 0.001177 -80.837257 0.001177 329.270111
52 329.270111 0.000954 0.000000 0.001177 -80.822029 0.001177 329.270111
[L_Toe3_03]
50 439.137451 -0.001907 0.000954 -179.996796 76.716652 -179.993271 439.137451
51 439.137451 -0.001907 0.000954 -179.996796 76.712090 -179.993271 439.137451
52 439.137451 -0.001907 0.000954 -179.996796 76.707512 -179.993271 439.137451
[planeLockWeightLeft]
50 1000.000122 0.098019 0.076131 -0.011826 -0.004376 0.005620 1000.000122
51 1000.000122 0.098011 0.076132 -0.011826 -0.004376 0.005620 1000.000122
52 1000.000122 0.098003 0.076134 -0.011826 -0.004376 0.005620 1000.000122
[R_Leg01]
50 761.455627 -0.001907 -0.000358 123.943207 -13.267562 36.411263 761.455688
51 761.455627 -0.001907 -0.000358 123.214043 -12.619791 36.435963 761.455688
52 761.455627 -0.001907 -0.000358 122.486946 -11.971764 36.452171 761.455688
[R_Leg02]
50 1441.140625 0.000000 -0.000238 -1.492048 -0.275692 -124.525673 1441.140625
51 1441.140625 0.000000 -0.000238 -1.526005 -0.284503 -124.141777 1441.140625
52 1441.140625 0.000000 -0.000238 -1.495983 -0.270705 -123.279495 1441.140625
[R_Leg03]
50 1686.963989 0.000954 0.001431 0.081731 -0.047065 132.814789 1686.963989
51 1686.963989 0.000954 0.001431 0.080883 -0.046559 132.613815 1686.963989
52 1686.963989 0.000954 0.001431 0.080034 -0.046056 132.412827 1686.963989
[R_Foot]
50 3041.560059 -30.531288 -11.204481 -5.907185 -24.609074 57.128876 3041.734131
51 3041.560059 -30.531288 -11.204481 -5.196588 -24.626398 57.140865 3041.734131
52 3041.560059 -30.531288 -11.204481 -4.485885 -24.643864 57.152611 3041.734131
[planeAlignerRight]
50 -126.115425 -573.965881 -313.671600 -36.577137 -71.339012 -64.343925 666.132019
51 -126.192924 -573.969543 -313.632690 -36.577137 -71.339012 -64.343925 666.131531
52 -126.270447 -573.973267 -313.593842 -36.577137 -71.339012 -64.343925 666.131042
[R_Toe1_01]
50 -188.383347 -224.864899 21.052242 76.770988 -0.293621 -172.728439 294.101532
51 -188.383347 -224.864899 21.052242 76.769913 -0.310903 -172.728470 294.101532
52 -188.383347 -224.864899 21.052242 76.768845 -0.328185 -172.728500 294.101532
[R_Toe2_01]
50 200.637817 -220.002121 -148.787384 -91.622932 32.805939 -59.111530 332.857574
51 200.637817 -220.002121 -148.787384 -91.640106 32.815636 -59.121605 332.857574
52 200.637817 -220.002121 -148.787384 -91.657280 32.825344 -59.131687 332.857574
[R_Toe3_01]
50 188.606735 -220.092957 191.126343 -73.118591 -8.496490 -73.786469 347.192566
51 188.606735 -220.092957 191.126343 -73.133949 -8.490829 -73.782150 347.192566
52 188.606735 -220.092957 191.126343 -73.149292 -8.485169 -73.777809 347.192566
[planeLockWeightRight]
50 999.999268 0.000000 0.075814 -0.011823 -0.004379 -0.000027 999.999268
51 999.999268 0.000000 0.075805 -0.011823 -0.004379 -0.000027 999.999268
52 999.999329 0.000000 0.075796 -0.011823 -0.004379 -0.000027 999.999329
[R_Toe1_02]
50 413.762085 0.000477 -0.000119 0.001394 -24.734308 0.001394 413.762085
51 413.762085 0.000477 -0.000119 0.001394 -24.723619 0.001394 413.762085
52 413.762085 0.000477 -0.000119 0.001394 -24.712925 0.001394 413.762085
[R_Toe1_03]
50 464.317810 0.000000 0.001088 0.006625 69.593369 0.006625 464.317810
51 464.317810 0.000000 0.001088 0.006625 69.593369 0.006625 464.317810
52 464.317810 0.000000 0.001088 0.006625 69.593369 0.006625 464.317810
[R_Toe2_02]
50 342.234741 -0.000954 0.000238 0.001197 -67.192680 0.001197 342.234741
51 342.234741 -0.000954 0.000238 0.001197 -67.196770 0.001197 342.234741
52 342.234741 -0.000954 0.000238 0.001197 -67.200829 0.001197 342.234741
[R_Toe2_03]
50 420.210846 0.000715 -0.000268 0.008208 73.558075 0.008208 420.210846
51 420.210846 0.000715 -0.000268 0.008211 73.565781 0.008211 420.210846
52 420.210846 0.000715 -0.000268 0.008215 73.573517 0.008215 420.210846
[R_Toe3_02]
50 329.270355 -0.000477 -0.000954 0.001184 -74.518616 0.001184 329.270355
51 329.270355 -0.000477 -0.000954 0.001184 -74.518639 0.001184 329.270355
52 329.270355 -0.000477 -0.000954 0.001184 -74.518616 0.001184 329.270355
[R_Toe3_03]
50 439.137939 0.000238 0.001431 -0.011616 83.319542 -0.008113 439.137939
51 439.137939 0.000238 0.001431 -0.011611 83.316811 -0.008109 439.137939
52 439.137939 0.000238 0.001431 -0.011607 83.313995 -0.008105 439.137939
[Rear_Leg02]
50 1162.777710 -0.029802 0.005960 1.166772 -2.768711 -121.787727 1162.777710
51 1162.777710 -0.029802 0.005960 1.070670 -2.801029 -121.995102 1162.777710
52 1162.777710 -0.029802 0.005960 0.974682 -2.833693 -122.202400 1162.777710
[Rear_Leg03]
50 607.192505 -0.013351 -0.073195 0.010477 -0.005139 68.611633 607.192505
51 607.192505 -0.013351 -0.073195 0.010513 -0.005063 67.790344 607.192505
52 607.192505 -0.013351 -0.073195 0.010543 -0.005001 67.107590 607.192505
[Rear_Leg04]
50 995.874512 -0.020504 -0.011921 -0.041017 -0.018295 67.124657 995.874573
51 995.874512 -0.020504 -0.011921 -0.041607 -0.018313 65.579979 995.874573
52 995.874512 -0.020504 -0.011921 -0.042197 -0.018347 64.035004 995.874573
[Rear_Foot]
50 3096.176270 -0.067472 -0.041425 -161.370499 81.630600 24.507738 3096.176270
51 3096.176270 -0.067472 -0.041425 -160.162109 82.230820 26.959093 3096.176270
52 3096.176270 -0.067472 -0.041425 -158.649689 82.822746 29.713587 3096.176270
[planeAlignerCenter]
50 0.919388 -16.081898 -776.959839 12.240772 -0.001473 179.998184 777.126770
51 0.919539 -16.081848 -776.961365 12.240773 -0.001473 179.998184 777.128357
52 0.919691 -16.081797 -776.962952 12.240769 -0.001473 179.998184 777.129883
[Rear_Toe1_01]
50 0.653352 83.966492 -371.173737 0.290202 41.914127 90.411064 380.553192
51 0.653352 83.966492 -371.173737 0.289899 41.914127 90.411369 380.553192
52 0.653352 83.966492 -371.173737 0.289598 41.914131 90.411682 380.553192
[Rear_Toe2_01]
50 178.200760 -294.826019 -362.060547 -7.196267 34.406261 -66.271294 499.765686
51 178.200760 -294.826019 -362.060547 -7.196267 34.406261 -66.271294 499.765686
52 178.200760 -294.826019 -362.060547 -7.196267 34.406261 -66.271294 499.765686
[Rear_Toe3_01]
50 -153.359680 -308.780914 -362.060852 3.289418 33.518005 -112.540970 499.952881
51 -153.359680 -308.780914 -362.060852 3.289418 33.518005 -112.540970 499.952881
52 -153.359680 -308.780914 -362.060852 3.289418 33.518005 -112.540970 499.952881
[planeLockWeightCenter]
50 1000.000244 0.000305 0.076404 -0.011814 -0.004373 -0.000015 1000.000244
51 1000.000244 0.000305 0.076402 -0.011814 -0.004373 -0.000015 1000.000244
52 1000.000244 0.000305 0.076400 -0.011814 -0.004373 -0.000015 1000.000244
[Rear_Toe1_02]
50 379.707825 0.194073 0.000477 -0.000239 -31.639198 0.006933 379.707855
51 379.707825 0.194073 0.000477 -0.000240 -31.644564 0.006933 379.707855
52 379.707825 0.194073 0.000477 -0.000240 -31.649937 0.006933 379.707855
[Rear_Toe1_03]
50 500.129700 0.165701 0.000119 -0.000104 51.894775 0.007295 500.129761
51 500.129700 0.165701 0.000119 -0.000104 51.895878 0.007295 500.129761
52 500.129700 0.165701 0.000119 -0.000104 51.896961 0.007295 500.129761
[Rear_Toe2_02]
50 340.494507 0.000238 -0.000954 0.001192 -69.854523 0.001192 340.494507
51 340.494507 0.000238 -0.000954 0.001192 -69.854523 0.001192 340.494507
52 340.494507 0.000238 -0.000954 0.001192 -69.854523 0.001192 340.494507
[Rear_Toe2_03]
50 433.103577 0.000000 0.000238 0.006696 69.810303 0.006696 433.103546
51 433.103577 0.000000 0.000238 0.006696 69.810326 0.006696 433.103546
52 433.103577 0.000000 0.000238 0.006696 69.810326 0.006696 433.103546
[Rear_Toe3_02]
50 340.494141 -0.000358 -0.000477 0.008288 -67.274704 -0.009460 340.494171
51 340.494141 -0.000358 -0.000477 0.008288 -67.274704 -0.009460 340.494171
52 340.494141 -0.000358 -0.000477 0.008288 -67.274704 -0.009460 340.494171
[Rear_Toe3_03]
50 433.103577 0.001431 -0.000238 -0.000972 65.958984 -0.004547 433.103546
51 433.103577 0.001431 -0.000238 -0.000972 65.959007 -0.004547 433.103546
52 433.103577 0.001431 -0.000238 -0.000972 65.959007 -0.004547 433.103546
[Back_Bone]
50 1312.175781 -701.934692 0.000954 0.000023 -0.000007 -85.606667 1488.125488
51 1312.175781 -701.934692 0.000954 0.000023 -0.000007 -85.606667 1488.125488
52 1312.175781 -701.934692 0.000954 0.000023 -0.000007 -85.606667 1488.125488
[Head]
50 1406.159424 809.709290 0.001431 0.000625 -1.475623 7.768025 1622.625488
51 1406.159424 809.709290 0.001431 0.000625 -1.475624 7.768028 1622.625488
52 1406.159424 809.709290 0.001431 0.000625 -1.475623 7.768025 1622.625488
[Motor_Bone]
50 1158.364380 -417.834747 0.000477 -0.095385 0.076112 -105.915703 1231.419434
51 1158.364380 -417.834747 0.000477 -0.095385 0.076104 -105.915718 1231.419434
52 1158.364380 -417.834747 0.000477 -0.095385 0.076104 -105.915703 1231.419434
[Ping_Mechanism]
50 1233.620361 -441.751526 -3.330405 0.000103 -0.000053 82.120995 1310.333862
51 1233.638550 -441.754059 -2.900198 0.000103 -0.000053 82.120995 1310.350830
52 1233.656616 -441.756622 -2.469989 0.000103 -0.000053 82.120995 1310.367798
[BN_LookIK]
50 193.241119 1380.371704 -0.002861 0.000000 89.965736 -31.038179 1393.832153
51 193.241119 1380.371704 -0.002861 0.000000 89.965736 -31.038179 1393.832153
52 193.241119 1380.371704 -0.002861 0.000000 89.965736 -31.038179 1393.832153
[bottomMouth]
50 -435.092926 615.759399 -0.000954 -0.000022 0.000016 73.527184 753.966492
51 -435.092926 615.759399 -0.000954 -0.000022 0.000016 73.527184 753.966492
52 -435.092926 615.759399 -0.000954 -0.000022 0.000016 73.527184 753.966492
[L_Mouth01]
50 554.440979 7.658243 838.222046 150.204178 23.759130 109.605339 1005.027161
51 554.440979 7.658243 838.222046 150.204178 23.759130 109.605339 1005.027161
52 554.440979 7.658243 838.222046 150.204178 23.759130 109.605339 1005.027161
[L_mouthFront]
50 551.629089 934.514771 339.150421 0.000081 2.804060 79.119301 1136.941284
51 551.629089 934.514771 339.150421 0.000081 2.804060 79.119301 1136.941284
52 551.629089 934.514771 339.150421 0.000081 2.804060 79.119301 1136.941284
[mouthGun]
50 55.332661 1627.420898 0.000000 0.000023 0.000009 -11.038128 1628.361328
51 55.332661 1627.420898 0.000000 0.000023 0.000009 -11.038128 1628.361328
52 55.332661 1627.420898 0.000000 0.000023 0.000009 -11.038128 1628.361328
[R_Mouth01]
50 554.442383 7.659197 -838.223938 29.795891 -23.759109 109.605331 1005.029541
51 554.442383 7.659197 -838.223938 29.795891 -23.759109 109.605331 1005.029541
52 554.442383 7.659197 -838.223938 29.795891 -23.759109 109.605331 1005.029541
[R_mouthFront]
50 551.629089 934.514282 -339.151367 0.000029 -2.803930 79.119133 1136.941162
51 551.629089 934.514282 -339.151367 0.000029 -2.803930 79.119133 1136.941162
52 551.629089 934.514282 -339.151367 0.000029 -2.803930 79.119133 1136.941162
[TopMouth]
50 461.269867 -56.106091 -0.008583 -0.000059 -0.000268 92.025169 464.669525
51 461.269867 -56.106091 -0.008583 -0.000059 -0.000268 92.025169 464.669525
52 461.269867 -56.106091 -0.008583 -0.000059 -0.000268 92.025169 464.669525
[weapon_bone]
50 -987.239868 1448.372803 0.001431 0.000000 89.965736 -31.038221 1752.833740
51 -987.239868 1448.372803 0.001431 0.000000 89.965736 -31.038221 1752.833740
52 -987.239868 1448.372803 0.001431 0.000000 89.965736 -31.038221 1752.833740
